<svg xmlns="http://www.w3.org/2000/svg" height="28.808" width="63.694" viewBox="0 0 63.694264 28.80778" id="svg4270"><style id="style4272">.a{fill:#fff}.b{fill:#f48120}.c{fill:#faad3f}.d{fill:#404041}</style><path id="polygon4276" class="a" transform="matrix(1.32146 0 0 1.32146 -72.548 -4.757)" fill="#fff" d="M98.6 25.2v-11L93 12.9l-1-.4-25.7.2v12.4z"/><path id="path4278" d="M43.872 26.958c.397-1.322.265-2.643-.396-3.436-.66-.793-1.586-1.322-2.775-1.454l-22.993-.264c-.133 0-.265-.132-.397-.132-.132-.132-.132-.264 0-.397.132-.264.264-.396.529-.396l23.125-.264c2.775-.132 5.682-2.379 6.74-5.022l1.321-3.436c0-.132.132-.264 0-.396C47.572 5.021 41.494 0 34.358 0c-6.607 0-12.29 4.229-14.272 10.175-1.321-.925-2.907-1.453-4.757-1.321-3.172.264-5.682 2.907-6.079 6.078-.132.793 0 1.586.132 2.38C4.23 17.442 0 21.671 0 26.957c0 .528 0 .925.132 1.453 0 .265.264.397.397.397h42.418c.265 0 .529-.132.529-.397l.396-1.453z" class="b" fill="#f48120"/><path id="path4280" d="M51.14 12.157h-.66c-.132 0-.265.133-.397.265l-.925 3.171c-.396 1.322-.264 2.643.397 3.436.66.793 1.585 1.321 2.775 1.454l4.89.264c.131 0 .263.132.396.132.132.132.132.264 0 .396-.133.265-.265.397-.529.397l-5.022.264c-2.775.132-5.682 2.379-6.739 5.022l-.264 1.19c-.132.131 0 .395.264.395h17.443c.265 0 .397-.132.397-.396.264-1.057.528-2.246.528-3.436 0-6.871-5.682-12.554-12.554-12.554" class="c" fill="#faad3f"/></svg>