<svg xmlns="http://www.w3.org/2000/svg" width="120.507" height="184.783"><path d="M69.155 13.794l-4.917 19.529C71.203 19.53 82.265 9.151 94.967 0 85.68 10.789 77.213 21.579 72.023 32.368c8.74-12.292 20.486-19.12 33.733-23.627C88.138 24.447 74.153 41.301 63.5 58.235l-8.467-3.687c1.501-13.52 6.61-27.369 14.122-40.754z" fill="#abcd03"/><path d="M46.543 50.958l16.116 6.686c0 4.098-.333 16.597 2.229 20.284 26.803 34.519 22.294 103.713-5.43 105.488-42.216 0-58.316-28.679-58.316-55.038 0-24.037 28.816-40.016 46.025-54.219 4.37-3.824 3.61-12.275-.624-23.201z" fill="#fffcdb"/><path d="M62.664 57.403l5.808 2.963c-.546 3.823.273 12.292 4.096 14.476 16.936 10.516 32.914 21.988 39.197 33.46 22.398 40.426-15.706 77.846-48.62 74.295 17.89-13.248 23.08-40.425 16.389-70.062-2.731-11.609-6.966-22.125-14.478-34.007-3.255-5.832-2.118-13.066-2.392-21.125z" fill="#7d4698"/><g><path d="M59.868 56.405l12.018 1.639c-3.551 11.745 6.966 19.939 10.38 21.852 7.648 4.234 15.023 8.604 20.896 13.93a53.15 53.15 0 0 1 17.345 39.333c0 14.886-6.83 29.226-18.301 38.786-10.79 9.014-25.675 12.838-40.152 12.838-9.014 0-17.072-.409-25.812-3.278-19.94-6.692-34.826-23.763-36.055-44.25-1.093-15.979 2.458-28.134 14.887-40.835 6.418-6.692 19.393-14.34 28.27-20.486 4.372-3.005 9.015-11.473.137-27.451l1.776-1.366 13.156 8.812-11.107-4.578c.956 1.366 3.55 7.512 4.098 9.287 1.229 5.053.683 9.971-.41 12.155-5.6 10.107-15.16 12.838-22.124 18.574-12.292 10.106-25.676 18.164-24.174 45.888.683 13.657 11.336 30.319 27.314 38.104 9.014 4.371 19.394 6.146 29.91 6.692 9.423.41 27.45-5.19 37.284-13.384 10.516-8.74 16.389-21.988 16.389-35.508 0-13.658-5.463-26.632-15.706-35.783-5.873-5.326-15.57-11.745-21.578-15.16-6.01-3.414-13.521-12.974-11.063-22.124z"/><path d="M56.18 76.618c-1.228 6.283-2.594 17.618-8.057 21.852-2.322 1.638-4.644 3.278-7.102 4.916-9.833 6.693-19.667 12.974-24.173 29.09-.956 3.415-.136 7.102.684 10.516 2.458 9.833 9.423 20.486 14.886 26.769 0 .273 1.093.956 1.093 1.229 4.507 5.327 5.873 6.829 22.944 10.652l-.41 1.913c-10.243-2.731-18.71-5.189-24.037-11.336 0-.136-.956-1.093-.956-1.093-5.736-6.556-12.702-17.481-15.296-27.724-.956-4.098-1.775-7.238-.683-11.473 4.643-16.661 14.75-23.217 24.993-30.182 2.322-1.502 5.053-2.869 7.238-4.644 4.233-3.14 6.554-12.701 8.877-20.485z"/><path d="M60.548 102.566c.137 7.102-.556 10.664 1.219 15.718 1.092 3.004 4.782 7.102 5.875 11.063 1.502 5.327 3.138 11.199 3 14.75 0 4.098-.257 11.742-2.032 19.937-1.353 6.772-4.473 12.582-9.718 15.875-5.374-1.106-11.683-2.995-15.407-6.187-7.238-6.282-13.648-16.787-14.468-25.938-.682-7.51 6.272-18.588 15.968-24.187 8.194-4.78 10.1-10.228 11.875-18.969-2.458 7.648-4.766 14.06-12.687 18.156-11.472 6.01-17.359 16.097-16.813 25.657.82 12.29 5.742 20.62 15.438 27.312 4.097 2.868 11.751 5.899 16.531 6.719v-.625c3.625-.679 8.318-6.633 10.656-14.688 2.05-7.238 2.857-16.502 2.719-22.375-.137-3.414-1.643-10.808-4.375-17.5-1.502-3.687-3.81-7.373-5.312-9.968-1.637-2.597-1.65-8.195-2.47-14.75z"/><path d="M59.735 129.347c.136 4.78 2.056 10.904 2.875 17.187.684 4.644.387 9.309.25 13.407-.135 4.743-1.715 13.242-3.875 17.375-2.036-.934-2.833-2-4.156-3.719-1.638-2.322-2.75-4.644-3.844-7.375-.819-2.049-1.776-4.394-2.187-7.125-.546-4.097-.393-10.507 4.25-17.063 3.55-5.19 4.365-5.584 5.594-11.593-1.64 5.326-2.863 5.869-6.688 10.375-4.233 4.917-4.937 12.159-4.937 18.031 0 2.459.98 5.187 1.937 7.781 1.092 2.732 2.03 5.452 3.531 7.5 2.258 3.321 5.148 5.21 6.563 5.563.009.002.022-.002.031 0 .03.007.065.025.094.03v-.155c2.65-2.955 4.244-5.89 4.78-8.844.684-3.551.84-7.11 1.25-11.344.41-3.55.113-8.334-.843-13.25-1.365-6.146-3.669-12.412-4.625-16.781z"/><path d="M60.14 70.882c.138 7.101.684 20.35 2.596 25.539.546 1.775 5.599 9.56 9.149 18.983 2.459 6.556 3.005 12.565 3.415 14.34 1.639 7.785-.41 20.896-3.142 33.324-1.365 6.692-6.01 15.023-11.335 18.301l-1.092 1.912c3.005-.137 10.379-7.375 12.974-16.389 4.37-15.296 6.146-22.398 4.098-39.333-.273-1.64-.956-7.238-3.551-13.248-3.824-9.151-9.287-17.891-9.97-19.667-1.23-2.867-2.868-15.295-3.141-23.762z"/><path d="M62.703 61.17c-.405 7.297-.513 9.985.852 15.311 1.502 5.873 9.15 14.34 12.292 24.037 6.009 18.574 4.507 42.884.136 61.867-1.638 6.691-9.424 16.389-17.208 19.529l5.736 1.366c3.14-.137 11.198-7.648 14.34-16.252 5.052-13.521 6.009-29.636 3.96-46.571-.137-1.639-2.87-16.252-5.463-22.398-3.688-9.15-10.244-17.345-10.926-19.119-1.228-3.005-3.927-9.244-3.719-17.77z"/><path d="M58.362 56.033h.55v126.02h-.55z"/></g></svg>